<?xml version="1.0" encoding="UTF-8"?>
<svg version="1.1" xmlns="http://www.w3.org/2000/svg" width="512" height="512">
<path d="M0 0 C3.00692671 1.22129356 5.69966262 2.58552366 8.49829102 4.22412109 C10.02776367 5.11357422 10.02776367 5.11357422 11.58813477 6.02099609 C13.22202148 6.98199219 13.22202148 6.98199219 14.88891602 7.96240234 C16.04612574 8.63746874 17.20368459 9.31193696 18.36157227 9.98583984 C20.76462184 11.38506039 23.16615521 12.7868317 25.56665039 14.19042969 C31.07678413 17.40939599 36.60899218 20.59010079 42.13891602 23.77490234 C44.3056858 25.02472359 46.47235216 26.27472415 48.63891602 27.52490234 C49.71141602 28.14365234 50.78391602 28.76240234 51.88891602 29.39990234 C56.76391602 32.21240234 56.76391602 32.21240234 61.63891602 35.02490234 C62.71157715 35.64373291 63.78423828 36.26256348 64.8894043 36.90014648 C67.05448672 38.14925752 69.21952584 39.39844364 71.38452148 40.64770508 C76.82507307 43.78692544 82.26638817 46.92480797 87.70922852 50.06005859 C99.12992904 56.64068697 110.53306265 63.249326 121.90917969 69.90673828 C127.53319256 73.19133712 133.17313455 76.44632851 138.83032227 79.67333984 C139.79971741 80.226325 139.79971741 80.226325 140.78869629 80.79048157 C143.96281311 82.60007155 147.13855522 84.40675102 150.31616211 86.21020508 C152.0208667 87.18002319 152.0208667 87.18002319 153.76000977 88.16943359 C154.77506592 88.74540283 155.79012207 89.32137207 156.8359375 89.91479492 C159.13891602 91.27490234 159.13891602 91.27490234 160.13891602 92.27490234 C160.27422417 94.67995412 160.34460578 97.0578692 160.37356567 99.46507263 C160.38641472 100.22657924 160.39926376 100.98808585 160.41250217 101.77266842 C160.45421088 104.34424338 160.48835687 106.9158593 160.5222168 109.48754883 C160.54974467 111.32366739 160.57747979 113.15978286 160.60540771 114.99589539 C160.85103667 131.78814759 160.99047505 148.58175947 161.10185432 165.37538052 C161.17845891 176.66913078 161.28708625 187.96069847 161.47631836 199.25317383 C161.64132636 209.10099967 161.74639395 218.9473042 161.77909076 228.79649216 C161.79836544 234.00988936 161.84693714 239.21919975 161.96689224 244.43133354 C162.0788003 249.34205421 162.10979781 254.24680578 162.08003998 259.15864754 C162.08310883 260.95597379 162.11509982 262.75353108 162.17886734 264.54972839 C162.55152864 275.61020636 162.55152864 275.61020636 160.13891602 280.27490234 C155.96319635 284.52513188 150.61309549 286.96814061 145.22055984 289.33239663 C142.24141395 290.68126429 139.50659596 292.31997539 136.70532227 294.00537109 C134.70444981 295.15846066 132.70314208 296.31079524 130.70141602 297.46240234 C128.45270651 298.75795515 126.20400894 300.05352866 123.95532227 301.34912109 C122.82626465 301.99929199 121.69720703 302.64946289 120.53393555 303.31933594 C115.06721622 306.46822288 109.60316715 309.62173498 104.13891602 312.77490234 C101.97226291 314.02492584 99.80559622 315.27492581 97.63891602 316.52490234 C96.56641602 317.14365234 95.49391602 317.76240234 94.38891602 318.39990234 C82.47224935 325.27490234 70.55558268 332.14990234 58.63891602 339.02490234 C57.56544922 339.64421631 56.49198242 340.26353027 55.38598633 340.90161133 C53.22910698 342.14595232 51.0722061 343.39025598 48.9152832 344.63452148 C42.20084194 348.50796428 35.48684039 352.38216518 28.7746582 356.25952148 C26.54772473 357.54400669 24.31924912 358.82582259 22.08911133 360.10473633 C17.55984669 362.70400384 13.04401334 365.3084822 8.60766602 368.06396484 C7.9628125 368.45720947 7.31795898 368.8504541 6.65356445 369.25561523 C5.05093939 370.23807673 3.4613176 371.24167129 1.87329102 372.24755859 C-0.86108398 373.27490234 -0.86108398 373.27490234 -3.55639648 372.84130859 C-8.37331902 370.55811009 -12.91206721 367.8823542 -17.48608398 365.14990234 C-19.6442186 363.87524577 -21.80310354 362.60185894 -23.96264648 361.32958984 C-25.09089844 360.66411133 -26.21915039 359.99863281 -27.3815918 359.31298828 C-32.59030835 356.25293596 -37.84215584 353.26840339 -43.09277344 350.28103638 C-53.40722268 344.41231697 -63.68461874 338.48360803 -73.92797852 332.49145508 C-84.45193023 326.33723493 -95.01488536 320.25120238 -105.57885742 314.16601562 C-112.07444715 310.42346594 -118.5671444 306.67589991 -125.06005859 302.92871094 C-130.14733431 299.99307476 -135.23534503 297.05873622 -140.32601929 294.1289978 C-142.73652146 292.74162139 -145.14659775 291.3535061 -147.55664062 289.96533203 C-149.26252366 288.98316419 -150.96902384 288.0020685 -152.67553711 287.02099609 C-154.21951172 286.13154297 -154.21951172 286.13154297 -155.79467773 285.22412109 C-157.15677368 284.44041138 -157.15677368 284.44041138 -158.54638672 283.64086914 C-160.35234599 282.57512269 -162.11629527 281.43809482 -163.86108398 280.27490234 C-164.20849351 277.77153267 -164.3565672 275.50402917 -164.38334656 272.99139404 C-164.40284341 272.23185527 -164.42234027 271.4723165 -164.44242793 270.6897614 C-164.50382965 268.13067208 -164.54333066 265.57172633 -164.58251953 263.01220703 C-164.62094524 261.18241373 -164.66035148 259.35264079 -164.70066833 257.52288818 C-165.0490302 240.78455863 -165.21843231 224.04082165 -165.35097027 207.29954147 C-165.45056177 194.92787974 -165.62887116 182.5628375 -165.91350335 170.19401622 C-166.10694361 161.49243376 -166.20764437 152.79264572 -166.24121886 144.08899617 C-166.26385008 138.89282466 -166.32680508 133.70463426 -166.49030113 128.51082611 C-167.44029861 96.95627287 -167.44029861 96.95627287 -161.50094604 89.18800163 C-155.85912877 84.32646277 -149.67298968 81.54932012 -142.64754295 79.23735619 C-138.98445731 77.97211206 -136.01315086 76.21890733 -132.74389648 74.15380859 C-130.82497746 73.04772927 -128.90571526 71.94224507 -126.98608398 70.83740234 C-124.8011786 69.57830433 -122.61628306 68.31918924 -120.43139648 67.06005859 C-119.34632813 66.43502441 -118.26125977 65.80999023 -117.14331055 65.16601562 C-111.71448456 62.03810086 -106.28789117 58.90631787 -100.86108398 55.77490234 C-98.69442816 54.52488355 -96.52776149 53.27488356 -94.36108398 52.02490234 C-93.28858398 51.40615234 -92.21608398 50.78740234 -91.11108398 50.14990234 C-79.19441732 43.27490234 -67.27775065 36.39990234 -55.36108398 29.52490234 C-54.28705322 28.90526611 -53.21302246 28.28562988 -52.10644531 27.6472168 C-49.95525174 26.40614981 -47.80404744 25.16510141 -45.65283203 23.92407227 C-40.601454 21.0099189 -35.55018088 18.09558416 -30.4992981 15.18057251 C-28.7104148 14.14816757 -26.92149681 13.11582278 -25.13256836 12.08349609 C-22.88770762 10.78804286 -20.64291208 9.49247664 -18.39819336 8.19677734 C-16.41328032 7.05139316 -14.42537349 5.91117382 -12.43383789 4.77734375 C-10.8589996 3.85766688 -9.30288578 2.90360145 -7.78442383 1.89355469 C-4.82308384 -0.04479165 -3.51932191 -0.89191792 0 0 Z M-7.82983398 38.02880859 C-8.86237305 38.62822266 -9.89491211 39.22763672 -10.95874023 39.84521484 C-12.64290039 40.83134766 -12.64290039 40.83134766 -14.36108398 41.83740234 C-15.53659992 42.52145223 -16.71238545 43.20503901 -17.88842773 43.88818359 C-20.33479325 45.30972367 -22.77997861 46.73326317 -25.22436523 48.15820312 C-30.75913392 51.38247388 -36.3108973 54.57727265 -41.86108398 57.77490234 C-44.02783209 59.02476118 -46.19449846 60.2747617 -48.36108398 61.52490234 C-61.36108398 69.02490234 -61.36108398 69.02490234 -64.61499023 70.90209961 C-66.76870118 72.14466254 -68.92234765 73.38733723 -71.07592773 74.63012695 C-76.0979266 77.52804857 -81.12051206 80.42493583 -86.14550781 83.31765747 C-87.9115392 84.33437433 -89.6773583 85.35145893 -91.44311523 86.36865234 C-93.64842553 87.63891107 -95.85412615 88.90849253 -98.06030273 90.17724609 C-104.36742293 93.81131023 -110.63363735 97.50588493 -116.86108398 101.27490234 C-112.206677 105.37078049 -106.943268 108.16519601 -101.54858398 111.14990234 C-93.37653519 115.71829337 -85.24903975 120.35032392 -77.17358398 125.08740234 C-68.43515692 130.20758005 -59.66086881 135.26125204 -50.86108398 140.27490234 C-41.79510436 145.44174077 -32.74926674 150.64127 -23.73608398 155.89990234 C-22.7834668 156.45548828 -21.83084961 157.01107422 -20.84936523 157.58349609 C-19.9431543 158.11330078 -19.03694336 158.64310547 -18.10327148 159.18896484 C-17.23283203 159.69331055 -16.36239258 160.19765625 -15.46557617 160.71728516 C-13.66441934 161.79446744 -11.88995382 162.9170957 -10.1394043 164.07470703 C-9.26638672 164.64350586 -8.39336914 165.21230469 -7.49389648 165.79833984 C-6.33591553 166.58217041 -6.33591553 166.58217041 -5.15454102 167.38183594 C-2.86644517 168.53261706 -2.86644517 168.53261706 -0.42773438 167.62768555 C2.35518918 166.16091304 5.11075989 164.67538126 7.83813477 163.10693359 C9.50803467 162.14968384 9.50803467 162.14968384 11.21166992 161.1730957 C12.41663284 160.47794701 13.62154692 159.78271364 14.82641602 159.08740234 C16.083264 158.36521617 17.34026513 157.64329644 18.59741211 156.92163086 C21.82528749 155.06747167 25.05080951 153.20926281 28.27545166 151.3494873 C31.13416806 149.70098051 33.99410056 148.05458547 36.85375977 146.40771484 C42.2116971 143.32011058 47.56684103 140.22769301 52.92114258 137.13378906 C57.24290439 134.63713547 61.56613749 132.14303715 65.88964844 129.64941406 C68.04121049 128.40817179 70.19241999 127.16631818 72.34326172 125.92382812 C77.40718607 122.99927043 82.47408272 120.08027463 87.55227661 117.18057251 C89.94428719 115.81426362 92.3345131 114.44484949 94.72460938 113.07519531 C96.40720564 112.1126922 98.09236438 111.15467303 99.77758789 110.19677734 C100.80045898 109.61025391 101.82333008 109.02373047 102.87719727 108.41943359 C103.7747876 107.90743408 104.67237793 107.39543457 105.59716797 106.86791992 C108.28626251 105.18255426 110.69942754 103.30127155 113.13891602 101.27490234 C97.59658242 92.1855829 82.02282748 83.15308657 66.42114258 74.16601562 C60.99231661 71.03810087 55.56570932 67.90634189 50.13891602 64.77490234 C44.06175437 61.26845752 37.98451129 57.76215534 31.90606689 54.25793457 C30.15550361 53.2487113 28.40501191 52.23936398 26.65454102 51.22998047 C24.47499437 49.97322575 22.29531769 48.71669649 20.11547852 47.46044922 C18.61500977 46.59516602 18.61500977 46.59516602 17.08422852 45.71240234 C16.11259766 45.15294922 15.1409668 44.59349609 14.13989258 44.01708984 C12.01537936 42.78372454 9.89822471 41.53764331 7.78637695 40.28271484 C6.70388672 39.64076172 5.62139648 38.99880859 4.50610352 38.33740234 C3.03439697 37.45761719 3.03439697 37.45761719 1.53295898 36.56005859 C-2.53251544 34.37765421 -4.03123228 35.81217572 -7.82983398 38.02880859 Z M-132.86108398 129.27490234 C-132.86108398 173.16490234 -132.86108398 217.05490234 -132.86108398 262.27490234 C-119.00108398 270.19490234 -119.00108398 270.19490234 -104.86108398 278.27490234 C-97.26491468 282.65174275 -89.66960379 287.02981511 -82.07885742 291.41601562 C-75.60375662 295.15663911 -69.12561154 298.89198853 -62.64794922 302.62817383 C-57.6146093 305.53156883 -52.58174622 308.43577825 -47.5508728 311.34344482 C-45.77745791 312.36835637 -44.00386752 313.39296357 -42.23022461 314.41748047 C-40.01112625 315.69942972 -37.79235382 316.98194341 -35.57397461 318.26513672 C-34.56399414 318.8484375 -33.55401367 319.43173828 -32.51342773 320.03271484 C-31.63678467 320.53947754 -30.7601416 321.04624023 -29.85693359 321.56835938 C-27.30435055 323.02240187 -24.74244423 324.45613099 -22.17384338 325.88156128 C-21.36556375 326.3302249 -20.55728411 326.77888851 -19.72451115 327.24114799 C-18.8021147 327.7528564 -18.8021147 327.7528564 -17.86108398 328.27490234 C-17.65076027 311.03767638 -17.49209629 293.80085128 -17.39477444 276.56263542 C-17.34838299 268.55841025 -17.28514809 260.55498269 -17.18212891 252.55126953 C-17.09237013 245.57444638 -17.03434819 238.59820084 -17.01428753 231.62081635 C-17.00256165 227.9265969 -16.97504965 224.2340297 -16.90951347 220.54034042 C-16.83690478 216.41449763 -16.83517769 212.29151869 -16.83935547 208.16503906 C-16.79081924 206.33192421 -16.79081924 206.33192421 -16.74130249 204.46177673 C-16.69038024 198.2657253 -16.69038024 198.2657253 -19.82628059 193.21211243 C-22.114169 191.66369205 -24.3587761 190.43705212 -26.86108398 189.27490234 C-27.86655273 188.67838867 -28.87202148 188.081875 -29.90795898 187.46728516 C-30.79999023 186.97583008 -31.69202148 186.484375 -32.61108398 185.97802734 C-33.62227295 185.41736572 -34.63346191 184.8567041 -35.67529297 184.27905273 C-36.726604 183.70018311 -37.77791504 183.12131348 -38.86108398 182.52490234 C-46.05001019 178.5331441 -53.22744961 174.53491591 -60.29858398 170.33740234 C-67.26878342 166.20172201 -74.27614241 162.13377715 -81.29858398 158.08740234 C-82.39420654 157.45592285 -83.4898291 156.82444336 -84.61865234 156.17382812 C-89.21460889 153.52574051 -93.81140973 150.8791206 -98.40844727 148.23291016 C-100.76019337 146.87912163 -103.1116691 145.52486541 -105.46289062 144.17016602 C-107.66082832 142.9038924 -109.85920398 141.63837854 -112.05810547 140.3737793 C-117.72379101 137.10938391 -123.34360603 133.79105599 -128.90014648 130.34350586 C-130.78157822 129.11539987 -130.78157822 129.11539987 -132.86108398 129.27490234 Z M122.67797852 131.77490234 C121.74598633 132.32404297 120.81399414 132.87318359 119.85375977 133.43896484 C118.83411133 134.04482422 117.81446289 134.65068359 116.76391602 135.27490234 C114.56929067 136.56773618 112.37394926 137.85935508 110.17797852 139.14990234 C109.60501038 139.48699219 109.03204224 139.82408203 108.44171143 140.17138672 C102.04097214 143.93137959 95.59048239 147.60307144 89.13891602 151.27490234 C79.4286057 156.8067591 69.75235836 162.39372132 60.10717773 168.03857422 C51.44133726 173.10801123 42.74598317 178.12526749 34.04077148 183.12670898 C23.51868882 188.42931852 23.51868882 188.42931852 14.13891602 195.27490234 C14.04267008 196.99582887 14.01704004 198.72073617 14.0186615 200.4443512 C14.01728683 201.56480835 14.01591217 202.6852655 14.01449585 203.8396759 C14.01809113 205.07972885 14.0216864 206.3197818 14.02539062 207.59741211 C14.0252446 208.89478302 14.02509857 210.19215393 14.02494812 211.52883911 C14.02466016 215.09686164 14.0305567 218.66485082 14.03752208 222.23286557 C14.0437558 225.95780854 14.04435943 229.6827522 14.04554749 233.40769958 C14.04866075 240.46607597 14.05687406 247.52443694 14.06689698 254.58280653 C14.07805828 262.61653205 14.0835686 270.6502583 14.08859241 278.68398964 C14.09905668 295.21430291 14.11665602 311.74460066 14.13891602 328.27490234 C15.09778717 327.72613434 16.05665833 327.17736633 17.04458618 326.61196899 C18.31641819 325.88452713 19.58825907 325.15710078 20.86010742 324.4296875 C21.49046402 324.06887589 22.12082062 323.70806427 22.77027893 323.33631897 C27.32790834 320.73023312 31.91132243 318.1756741 36.51391602 315.64990234 C44.60116693 311.18317838 52.58022262 306.54157503 60.55053711 301.87011719 C68.38308772 297.28463997 76.25266498 292.76703805 84.13891602 288.27490234 C96.00149007 281.51648221 107.80904454 274.66792591 119.58544922 267.76025391 C122.75957202 265.91386676 125.95065425 264.09676621 129.13891602 262.27490234 C129.13891602 218.38490234 129.13891602 174.49490234 129.13891602 129.27490234 C126.40020865 129.27490234 125.0341985 130.37669566 122.67797852 131.77490234 Z " fill="#000000" transform="translate(257.861083984375,69.72509765625)"/>
<path d="M0 0 C7.47331558 3.54226519 14.61876604 7.4568761 21.71875 11.68408203 C29.67756168 16.42138697 37.70750409 21.03310322 45.73876953 25.64624023 C46.79306152 26.25282471 47.84735352 26.85940918 48.93359375 27.484375 C49.95694824 28.06896484 50.98030273 28.65355469 52.03466797 29.25585938 C53.98183067 30.40113604 55.90454676 31.58924219 57.79736328 32.82226562 C62.61570323 36.04973065 62.61570323 36.04973065 68.171875 37.1328125 C71.75244735 35.69860534 74.9854908 33.90565699 78.25 31.875 C79.75689409 30.963324 81.26477383 30.05327592 82.7734375 29.14453125 C83.60069336 28.6438916 84.42794922 28.14325195 85.28027344 27.62744141 C90.440119 24.53987134 95.66175436 21.55869238 100.875 18.5625 C103.09908498 17.28146986 105.32304426 16.00022144 107.546875 14.71875 C108.62775391 14.09613281 109.70863281 13.47351563 110.82226562 12.83203125 C115.59327499 10.08144318 120.35962038 7.32282712 125.125 4.5625 C125.93050293 4.09593994 126.73600586 3.62937988 127.56591797 3.14868164 C129.37737855 2.09929353 131.18870687 1.04967711 133 0 C135.92925294 2.74094382 138.02164142 5.40343956 140.015625 8.87890625 C140.54414063 9.79994141 141.07265625 10.72097656 141.6171875 11.66992188 C142.15601563 12.62447266 142.69484375 13.57902344 143.25 14.5625 C143.80429687 15.52091797 144.35859375 16.47933594 144.9296875 17.46679688 C145.45304688 18.38654297 145.97640625 19.30628906 146.515625 20.25390625 C146.99290039 21.09252197 147.47017578 21.9311377 147.96191406 22.79516602 C149 25 149 25 149 28 C148.2879541 28.40613525 147.5759082 28.81227051 146.84228516 29.23071289 C134.89917947 36.04456696 122.95678138 42.85955268 111.04736328 49.73217773 C108.932322 50.95246898 106.81610897 52.17073157 104.69873047 53.38696289 C99.64898662 56.29201446 94.61539086 59.21882594 89.62149048 62.21873474 C87.24311458 63.64546864 84.85753395 65.05989676 82.47125244 66.47335815 C80.78988247 67.47621208 79.1191435 68.49682214 77.44873047 69.51782227 C76.42924316 70.12037842 75.40975586 70.72293457 74.359375 71.34375 C73.46702148 71.88193359 72.57466797 72.42011719 71.65527344 72.97460938 C68.26497747 74.28384467 66.47699506 73.97847078 63 73 C60.34472656 71.74755859 60.34472656 71.74755859 57.640625 70.1484375 C56.62097656 69.55224609 55.60132813 68.95605469 54.55078125 68.34179688 C53.46152344 67.69275391 52.37226563 67.04371094 51.25 66.375 C50.09302648 65.69497822 48.93546287 65.01595953 47.77734375 64.33789062 C45.37334852 62.92932676 42.97194227 61.51649359 40.57226562 60.10058594 C35.07165135 56.85983031 29.53397384 53.68332281 24 50.5 C21.86701348 49.26983294 19.73420218 48.039362 17.6015625 46.80859375 C16.53325195 46.19226074 15.46494141 45.57592773 14.36425781 44.94091797 C4.57617188 39.29394531 -5.21191406 33.64697266 -15 28 C-14.44218212 24.57010847 -13.64002473 21.9816225 -11.85546875 19.00390625 C-11.42556641 18.28009766 -10.99566406 17.55628906 -10.55273438 16.81054688 C-10.10220703 16.06869141 -9.65167969 15.32683594 -9.1875 14.5625 C-8.74857422 13.82451172 -8.30964844 13.08652344 -7.85742188 12.32617188 C-5.35077012 8.13600364 -2.74512667 4.03770379 0 0 Z " fill="#000000" transform="translate(189,438)"/>
<path d="M0 0 C2.65527344 1.25244141 2.65527344 1.25244141 5.359375 2.8515625 C6.37902344 3.44775391 7.39867187 4.04394531 8.44921875 4.65820312 C9.53847656 5.30724609 10.62773437 5.95628906 11.75 6.625 C12.90697352 7.30502178 14.06453713 7.98404047 15.22265625 8.66210938 C17.62665148 10.07067324 20.02805773 11.48350641 22.42773438 12.89941406 C27.92834865 16.14016969 33.46602616 19.31667719 39 22.5 C41.13298652 23.73016706 43.26579782 24.960638 45.3984375 26.19140625 C46.46674805 26.80773926 47.53505859 27.42407227 48.63574219 28.05908203 C63.31787109 36.52954102 63.31787109 36.52954102 78 45 C77.41215923 48.98102067 76.17417906 51.81272142 74.12890625 55.265625 C73.55462891 56.23757812 72.98035156 57.20953125 72.38867188 58.2109375 C71.4847168 59.71527344 71.4847168 59.71527344 70.5625 61.25 C69.96373047 62.26835938 69.36496094 63.28671875 68.74804688 64.3359375 C64.26394162 71.86802919 64.26394162 71.86802919 62 73 C59.61523438 71.8828125 59.61523438 71.8828125 56.59375 70.125 C55.46952637 69.47644043 54.34530273 68.82788086 53.18701172 68.15966797 C51.95791795 67.43993209 50.72891626 66.72003893 49.5 66 C48.24148218 65.27024711 46.98252494 64.54125153 45.72314453 63.81298828 C43.11417786 62.30284735 40.50780746 60.78836076 37.90332031 59.27050781 C34.18004218 57.10208135 30.44720196 54.95064255 26.7109375 52.8046875 C17.98255574 47.78807304 17.98255574 47.78807304 13.6796875 45.3046875 C12.72674805 44.75780273 11.77380859 44.21091797 10.79199219 43.64746094 C8.91055922 42.53729045 7.05159632 41.3882447 5.21582031 40.20410156 C4.34280273 39.64432617 3.46978516 39.08455078 2.5703125 38.5078125 C1.80734863 38.00137207 1.04438477 37.49493164 0.25830078 36.97314453 C-2.66734161 35.71242987 -3.9938016 36.02303621 -7 37 C-9.53900128 38.16677893 -9.53900128 38.16677893 -12.11328125 39.66796875 C-13.10223389 40.22468262 -14.09118652 40.78139648 -15.11010742 41.35498047 C-16.16689697 41.95971191 -17.22368652 42.56444336 -18.3125 43.1875 C-19.96245972 44.12166748 -19.96245972 44.12166748 -21.64575195 45.07470703 C-31.34587222 50.58345146 -40.98282732 56.20099753 -50.60546875 61.84375 C-57.04022718 65.6157328 -63.5113574 69.32157937 -70 73 C-74.26749834 69.35773979 -76.51886845 64.80563 -79.125 59.9375 C-80.00158305 58.32106042 -80.87914805 56.70515287 -81.7578125 55.08984375 C-82.1408252 54.37691162 -82.52383789 53.66397949 -82.91845703 52.92944336 C-83.86597175 51.23910277 -84.92510674 49.61233989 -86 48 C-86 47.01 -86 46.02 -86 45 C-85.42894531 44.67950684 -84.85789063 44.35901367 -84.26953125 44.02880859 C-72.20029349 37.24825709 -60.18178867 30.38994946 -48.23461914 23.39648438 C-40.48502183 18.8611191 -32.71653953 14.35959715 -24.9375 9.875 C-23.30494263 8.93358154 -23.30494263 8.93358154 -21.6394043 7.97314453 C-19.63067787 6.81553063 -17.61937734 5.66236662 -15.60498047 4.51464844 C-14.02113976 3.59373487 -12.45234089 2.64532308 -10.91455078 1.64941406 C-6.76620882 -1.00271159 -4.72616641 -1.16288907 0 0 Z " fill="#000000" transform="translate(260,1)"/>
<path d="M0 0 C10.23 0 20.46 0 31 0 C31 25.74 31 51.48 31 78 C33.97 78.99 33.97 78.99 37 80 C38.66763046 80.85967635 40.30906879 81.77188076 41.921875 82.73046875 C43.31768799 83.55321289 43.31768799 83.55321289 44.74169922 84.39257812 C45.73443848 84.98490234 46.72717773 85.57722656 47.75 86.1875 C49.8928051 87.45254151 52.03605038 88.71683763 54.1796875 89.98046875 C55.29311523 90.63837402 56.40654297 91.2962793 57.55371094 91.97412109 C64.37133359 95.98181681 71.23536813 99.90928278 78.09277344 103.84838867 C80.10555539 105.00680486 82.11608956 106.16913811 84.12402344 107.3359375 C86.06675955 108.46001979 88.01825682 109.56907498 89.97753906 110.6640625 C90.8950293 111.18742187 91.81251953 111.71078125 92.7578125 112.25 C93.57652832 112.70890625 94.39524414 113.1678125 95.23876953 113.640625 C96.11057861 114.31351563 96.11057861 114.31351563 97 115 C97 118.23825686 96.51077269 119.23776118 94.953125 121.984375 C94.52 122.75523437 94.086875 123.52609375 93.640625 124.3203125 C93.18171875 125.12210937 92.7228125 125.92390625 92.25 126.75 C91.58484375 127.92949219 91.58484375 127.92949219 90.90625 129.1328125 C89.61113734 131.42592373 88.30726425 133.71379828 87 136 C86.59716797 136.70576172 86.19433594 137.41152344 85.77929688 138.13867188 C84.85374255 139.75961622 83.92701461 141.37989035 83 143 C79.21481268 141.5839494 75.80250679 139.84578935 72.30078125 137.83203125 C71.18735352 137.19378418 70.07392578 136.55553711 68.92675781 135.89794922 C67.72195086 135.20289367 66.51719971 134.5077414 65.3125 133.8125 C64.05711328 133.09105251 62.80157708 132.36986506 61.54589844 131.64892578 C58.31879708 129.7949706 55.09403586 127.93698535 51.86993408 126.07781982 C50.09079075 125.05233129 48.31095951 124.02805128 46.53076172 123.00439453 C31.27714492 114.2331718 31.27714492 114.2331718 27.9609375 112.11279297 C24.73534956 110.19946679 21.50130524 109.21047678 17.9140625 108.14111328 C10.87326575 105.66230111 3.82085555 102.8014548 0 96 C-4.61098763 81.94662502 -2.34377717 65.0503978 -1.64794922 50.53674316 C-1.40092972 44.84041655 -1.29251851 39.14156163 -1.171875 33.44140625 C-0.9156071 22.2864717 -0.49420822 11.14692975 0 0 Z " fill="#000000" transform="translate(34,289)"/>
<path d="M0 0 C3.39002721 1.29108191 6.52160831 2.75781541 9.67578125 4.546875 C11.02216675 5.30846924 11.02216675 5.30846924 12.39575195 6.08544922 C13.35827881 6.63475098 14.32080566 7.18405273 15.3125 7.75 C16.32723389 8.32637207 17.34196777 8.90274414 18.38745117 9.49658203 C26.54519087 14.14219681 34.66066072 18.8590292 42.76220703 23.60180664 C51.66393478 28.81298108 60.59627257 33.96980303 69.53637695 39.11474609 C70.56980225 39.70980957 71.60322754 40.30487305 72.66796875 40.91796875 C73.57828857 41.44156982 74.4886084 41.9651709 75.42651367 42.50463867 C76.27576416 42.99810791 77.12501465 43.49157715 78 44 C78.86637085 44.33705963 79.7327417 44.67411926 80.62536621 45.02139282 C83 47 83 47 83.45115376 48.80457401 C83.61914921 51.26736358 83.61765473 53.68489915 83.56762695 56.15307617 C83.56835709 57.08985703 83.56908722 58.02663788 83.56983948 58.99180603 C83.56635189 62.09277963 83.5274348 65.1922571 83.48828125 68.29296875 C83.47895731 70.44101643 83.47183922 72.58907473 83.46684265 74.73713684 C83.44774003 80.39437144 83.39861049 86.05096549 83.34332275 91.70794678 C83.29220098 97.47903782 83.2693437 103.25023224 83.24414062 109.02148438 C83.19049521 120.34798316 83.10253204 131.67383813 83 143 C72.77 143 62.54 143 52 143 C52 117.26 52 91.52 52 65 C50.02 64.34 48.04 63.68 46 63 C44.33236954 62.14032365 42.69093121 61.22811924 41.078125 60.26953125 C40.14766357 59.72111572 39.21720215 59.1727002 38.25854492 58.60766602 C37.2657251 58.01526123 36.27290527 57.42285645 35.25 56.8125 C33.10592724 55.54609844 30.96137863 54.28050223 28.81640625 53.015625 C27.70281738 52.35755859 26.58922852 51.69949219 25.44189453 51.02148438 C21.98150347 48.98913666 18.50853016 46.9807791 15.02734375 44.984375 C13.88426758 44.32848389 12.74119141 43.67259277 11.56347656 42.99682617 C9.37490499 41.74284493 7.18550216 40.49031295 4.99511719 39.23950195 C-1.79304643 35.34185517 -8.4330839 31.25986225 -15 27 C-14.50371094 26.14019531 -14.00742187 25.28039062 -13.49609375 24.39453125 C-8.85849895 16.33384048 -4.36502666 8.2117064 0 0 Z " fill="#000000" transform="translate(395,80)"/>
<path d="M0 0 C2.00200321 3.50084338 3.99557069 7.0063385 5.98144531 10.51635742 C6.65817834 11.70972388 7.33720163 12.9017946 8.01855469 14.0925293 C8.99755465 15.80435212 9.96765299 17.52125618 10.9375 19.23828125 C11.52402344 20.26993408 12.11054688 21.30158691 12.71484375 22.36450195 C14 25 14 25 14 28 C12.24121094 29.37182617 12.24121094 29.37182617 9.734375 30.79296875 C8.7949707 31.33300537 7.85556641 31.87304199 6.88769531 32.42944336 C5.85225586 33.00960205 4.81681641 33.58976074 3.75 34.1875 C2.68620117 34.79537354 1.62240234 35.40324707 0.52636719 36.02954102 C-1.77018722 37.3403605 -4.06861295 38.64697313 -6.37109375 39.94726562 C-10.05711114 42.02969088 -13.73259481 44.13023594 -17.40625 46.234375 C-23.19227694 49.5476942 -28.98427006 52.85038638 -34.77929688 56.14794922 C-39.0958025 58.63013627 -43.37361073 61.17651416 -47.64550781 63.73461914 C-50 65 -50 65 -52 65 C-52 90.74 -52 116.48 -52 143 C-62.23 143 -72.46 143 -83 143 C-83 111.32 -83 79.64 -83 47 C-70 39.5 -57 32 -44 24.5 C-40.82697266 22.66888672 -40.82697266 22.66888672 -37.58984375 20.80078125 C-33.57280369 18.48309509 -29.55462951 16.16739874 -25.5350647 13.85409546 C-23.12456252 12.46671905 -20.71448624 11.07860376 -18.30444336 9.69042969 C-16.59856032 8.70826185 -14.89206014 7.72716615 -13.18554688 6.74609375 C-12.15623047 6.153125 -11.12691406 5.56015625 -10.06640625 4.94921875 C-9.15834229 4.42674561 -8.25027832 3.90427246 -7.31469727 3.3659668 C-1.61090259 0 -1.61090259 0 0 0 Z " fill="#000000" transform="translate(117,80)"/>
<path d="M0 0 C10.23 0 20.46 0 31 0 C31 31.68 31 63.36 31 96 C-8 118.5 -8 118.5 -14.41796875 122.19921875 C-18.4205018 124.50783879 -22.4191971 126.82284973 -26.4133606 129.14590454 C-28.80315668 130.5354863 -31.19436836 131.92262172 -33.58569336 133.30957031 C-35.27140589 134.28863253 -36.95506587 135.27122606 -38.63867188 136.25390625 C-39.66154297 136.846875 -40.68441406 137.43984375 -41.73828125 138.05078125 C-42.63587158 138.57325439 -43.53346191 139.09572754 -44.45825195 139.6340332 C-46.92213502 140.9581544 -49.38364731 142.01706574 -52 143 C-57 134 -62 125 -67 116 C-55.97205206 109.01265647 -44.63855795 102.55586255 -33.3170166 96.05990601 C-29.07039247 93.6211224 -24.83616319 91.16160507 -20.60546875 88.6953125 C-18.81597434 87.65438915 -17.02624764 86.61386655 -15.23641968 85.57351685 C-13.52291074 84.5758396 -11.81185201 83.57395798 -10.10083008 82.57202148 C-9.06724365 81.97204346 -8.03365723 81.37206543 -6.96875 80.75390625 C-6.05544922 80.22095947 -5.14214844 79.6880127 -4.20117188 79.13891602 C-2 78 -2 78 0 78 C0 52.26 0 26.52 0 0 Z " fill="#000000" transform="translate(447,289)"/>
</svg>
