<svg version="1.1" xmlns="http://www.w3.org/2000/svg" xmlns:xlink="http://www.w3.org/1999/xlink" width="800.00137" height="800.00137" viewBox="600.00103,107.00019,800.00137,800.00137"><defs><clipPath id="clip-1"><rect x="267.429" y="47.69151" transform="scale(2.24359,2.24359)" width="356.572" height="356.572" id="clip-1" fill="none"/></clipPath></defs><g id="document" fill="#ffffff" fill-rule="nonzero" stroke="#000000" stroke-width="0" stroke-linecap="butt" stroke-linejoin="miter" stroke-miterlimit="10" stroke-dasharray="" stroke-dashoffset="0" font-family="none" font-weight="none" font-size="none" text-anchor="none" style="mix-blend-mode: normal"><rect x="650" y="112.14286" transform="scale(1,1.4)" width="700" height="500" id="Shape 1 1" vector-effect="non-scaling-stroke"/></g><g fill="none" fill-rule="nonzero" stroke="none" stroke-width="1" stroke-linecap="butt" stroke-linejoin="miter" stroke-miterlimit="10" stroke-dasharray="" stroke-dashoffset="0" font-family="none" font-weight="none" font-size="none" text-anchor="none" style="mix-blend-mode: normal"><g><g id="stage"><g id="layer1 1"><g clip-path="url(#clip-1)" id="Group 1"><g id="Group 1" fill="#000000"><path d="M1007.35335,107.00112c-136.41228,0 -274.49828,68.48547 -274.49828,199.39423v333.45748c0,147.30938 119.83442,267.14605 267.14605,267.14605c147.30938,0 267.1438,-119.83667 267.1438,-267.14605v-333.45748c0,-137.00234 -134.66004,-199.39423 -259.79157,-199.39423zM1216.86392,639.85283c0,119.58987 -97.28638,216.85831 -216.86279,216.85831c-119.5809,0 -216.85831,-97.26843 -216.85831,-216.85831v-155.9584c44.90313,13.58491 129.42127,34.13616 229.34162,34.13616c63.97586,0 134.236,-8.54582 204.37948,-32.68232zM1216.86392,431.85893c-183.26285,70.07393 -377.71446,17.31151 -433.7211,-0.81667v-124.64692c0,-96.85113 115.52001,-149.10874 224.21054,-149.10874c104.28413,0 209.51056,46.09896 209.51056,149.10874zM1028.28601,215.56601v182.28689c0,13.88107 -11.26953,25.14611 -25.14163,25.14611c-13.87658,0 -25.14387,-11.26505 -25.14387,-25.14611v-182.28689c0,-13.87882 11.26505,-25.14387 25.14387,-25.14387c13.86985,0 25.14163,11.26505 25.14163,25.14387z" id="CompoundPath 1"/></g></g></g></g></g></g></svg>